<?xml version="1.0"?><svg width="339.693" height="382.974" xmlns="http://www.w3.org/2000/svg">
 <title>charcoal floral swirl</title>
 <metadata id="metadata7">image/svg+xml</metadata>
 <g>
  <title>Layer 1</title>
  <g id="svg_1">
   <g transform="matrix(0.739599 -0.750065 0.673047 0.824233 -127.367 59.8254)" id="svg_2">
    <path d="m19.8962,285.003998c-3.400499,-1.710999 -6.836,-3.205994 -9.98757,-5.401001c-6.73483,-4.993988 -12.43286,-10.77301 -17.377901,-17.432007c-5.67433,-7.603989 -7.413929,-16.312988 -7.57763,-25.481995c0.9558,-9.595993 6.044889,-17.12999 12.8027,-23.863998c8.2359,-6.888992 17.9261,-11.694 28.518099,-13.974991c11.726299,-2.149002 23.312801,-0.350006 34.633102,2.738998c10.460796,3.241989 19.121296,9.235992 25.797001,17.578995c6.182396,9.184998 4.526794,18.567993 0.6138,28.177002c-6.069099,11.412994 -15.1726,20.895996 -23.548302,30.722992c-9.197899,9.925995 -16.4025,21.184998 -22.378799,33.136017c-2.045803,7.52298 -6.547703,15.699005 -5.439899,23.358978c0.0938,0.64801 -0.855202,0.776001 -0.947601,0.128021l0,0c-1.3536,-9.51001 -4.105101,-16.527008 2.067398,-25.610016c6.554001,-11.942993 15.225101,-22.549988 23.076,-33.700989c7.281204,-9.903015 14.860703,-19.758011 20.365601,-30.722c3.2146,-7.320999 4.605103,-14.511002 0.858597,-21.979004c-4.972099,-8.341995 -12.379494,-13.863007 -21.680897,-17.315994c-10.551701,-3.518005 -21.5214,-4.902008 -32.615799,-3.037003c-10.1569,2.192001 -19.86933,4.755997 -27.234931,12.409988c-5.95756,6.24501 -10.56767,13.338013 -11.23417,22.035004c-0.5947,8.513 1.745681,16.339005 6.62394,23.483002c4.79309,6.179016 10.50208,11.772003 17.02766,16.243011c2.695299,1.941986 5.3143,4.776001 8.648499,5.470001c2.2789,0.473999 1.0592,4.078003 -1.0089,3.036987z" stroke-width="1px" fill-rule="nonzero" fill="#3f3f3f" id="svg_3"/>
    <path d="m116.369003,109.220001c3.329994,-1.634003 6.921997,-2.392998 10.553993,-3.105003c7.558006,-1.171997 15.183998,-0.815994 22.693001,0.418999c7.341003,1.951004 12.703003,6.609001 17.652008,11.940002c4.358002,5.757004 5.621002,11.542007 2.886002,18.190002c-3.637009,7.134003 -10.992004,11.069992 -17.662003,15.195999c-8.231003,4.763 -16.702011,9.106003 -25.102005,13.574997c-9.673996,4.632996 -18.337997,10.70401 -26.762001,17.162003c-9.657097,7.742004 -17.436401,17.212997 -24.046402,27.457993c-6.557999,9.632004 -9.850494,20.522003 -11.813995,31.770004c-1.864502,8.453003 -0.102699,16.470993 2.913902,24.406998c0.233597,0.614014 -0.665207,0.93399 -0.898102,0.319l0,0c-3.056103,-8.069 -4.548203,-16.408997 -4.2794,-25.041c1.450699,-11.75 5.730495,-22.546997 12.293095,-32.55899c6.956703,-10.292007 14.2537,-20.459 23.877907,-28.626999c8.249001,-6.957001 17.143997,-13.200012 26.572998,-18.584c8.188995,-4.536011 16.501999,-8.936005 24.186996,-14.251007c5.344009,-3.709991 10.628998,-7.632004 13.813995,-13.348999c1.515015,-4.268005 1.937012,-8.343002 -0.560989,-12.425003c-3.156998,-5.454994 -8.251007,-9.183998 -14.173996,-11.601997c-6.793015,-2.943001 -13.856003,-3.920998 -21.197006,-2.279999c-3.419998,0.802002 -6.852005,1.740997 -10.007004,3.281998c-1.371994,0.670006 -2.310997,-1.223 -0.940994,-1.894997l0,0z" stroke-width="1px" fill-rule="nonzero" fill="#3f3f3f" id="svg_4"/>
    <path d="m96.625504,209.860001c1.112099,-1.567001 3.208,-2.218002 4.973495,-2.992996c4.937004,-2.240005 9.149002,-5.549011 13.085999,-9.143997c5.364006,-5.052002 9.277,-11.106003 12.792,-17.434006c2.942009,-6.255005 4.17701,-13.130005 3.961998,-19.973007c-0.779999,-4.689987 -1.722,-9.426987 -6.157997,-11.947998c-0.583,-0.330994 -0.096001,-1.130997 0.486,-0.796997l0,0c5.737,3.292999 11.145004,5.333008 10.576004,12.940994c-0.779007,7.386002 -3.966003,13.920013 -7.352005,20.513c-3.236,6.680008 -7.418999,12.881012 -12.564995,18.345001c-3.808006,4.070999 -7.799004,7.969009 -12.133003,11.521011c-1.398003,1.168991 -3.028999,2.75499 -4.825996,2.927994c-3.504807,0.337006 -4.835701,-1.149994 -2.841499,-3.959z" stroke-width="1px" fill-rule="nonzero" fill="#3f3f3f" id="svg_5"/>
    <path d="m47.0275,293.062988c0.589699,-2.151978 2.716301,-3.694977 4.204498,-5.423981c3.7159,-4.777008 5.875103,-10.184021 7.650402,-15.854004c1.285698,-6.595001 1.179699,-13.218018 -0.760799,-19.654999c-1.581699,-5.373001 -4.700401,-10.117004 -8.873402,-13.934998c-4.460999,-3.897003 -9.760101,-4.392014 -15.487698,-3.719009c-3.947002,0.585007 -7.234602,2.259003 -10.583702,4.234009c-0.5777,0.340988 -1.075399,-0.451004 -0.4974,-0.791l0,0c3.441301,-2.024002 6.786301,-4.258011 10.549299,-5.703003c6.993603,-2.20401 13.825703,-2.690002 20.032303,1.841995c5.195,4.692001 8.544197,10.328003 9.921997,17.143005c0.771202,7.194992 0.3176,14.28801 -2.361797,21.126999c-1.679901,5.882996 -3.6521,11.832001 -6.675003,17.197998c-1.180298,2.119995 -2.277897,4.747986 -4.630997,5.606995c-2.170803,0.792999 -3.082603,0.100006 -2.487701,-2.070007z" stroke-width="1px" fill-rule="nonzero" fill="#3f3f3f" id="svg_6"/>
    <path d="m77.781601,254.076996c1.651398,-1.29599 2.652199,-3.112991 3.747101,-4.841003c2.832901,-4.593994 6.207901,-8.827988 9.682899,-12.975998c4.987602,-6.01799 10.542397,-11.541 16.266396,-16.896988c5.758003,-4.410004 10.214005,-9.718002 14.621002,-15.313004c4.034004,-6.054001 9.018997,-8.643005 16.171005,-6.192001c3.718002,1.832001 4.970001,5.25 6.830994,8.589005c0.499008,0.388992 0.999008,0.778 1.499008,1.166c0.526993,0.410995 0.567001,0.569 0,0.925995l0,0c-0.618011,0.389999 -1.236008,0.778992 -1.854004,1.168991c-3.709,2.165009 -8.057999,2.011002 -11.928009,0.059006c-1.263,-2.779999 -4.478989,-1.929001 -7.363991,-1.393005c-6.920006,2.470001 -12.303001,6.38501 -17.311005,11.654007c-5.695999,5.330002 -11.224899,10.826004 -16.188301,16.815002c-3.448997,4.117004 -6.799294,8.317993 -9.610497,12.876999c-1.078201,1.701996 -2.359398,3.354004 -2.885498,5.306992c-0.346504,1.287003 -2.744102,-0.112 -1.677101,-0.949997l0,0z" stroke-width="1px" fill-rule="nonzero" fill="#3f3f3f" id="svg_7"/>
    <path d="m25.2369,202.667999c-1.5914,-0.132996 -3.1952,-0.320999 -4.8016,-0.429993c-4.969001,0.046997 -9.810601,1.474991 -14.514831,2.899994c-9.37379,3.695999 -17.68207,9.317993 -25.75307,15.132004c-10.972401,8.155991 -20.552299,17.856995 -27.830799,29.242996c-5.3895,8.07901 -0.3162,17.026001 -2.312401,25.214996c0.755199,1.07901 1.5103,2.157013 2.265499,3.235992c0.379402,0.542023 -0.415798,1.061005 -0.793098,0.518005l0,0c-0.783199,-1.127991 -1.566299,-2.255981 -2.349503,-3.384003c-9.4216,-6.987 -3.8451,-18.330994 2.195602,-26.204987c7.758801,-11.202011 17.085999,-21.218002 28.2535,-29.365005c8.140499,-5.863998 16.522269,-11.529007 25.977559,-15.253006c4.71514,-2.131989 9.52874,-3.97699 14.660741,-4.929993c1.7813,-0.281006 3.675299,-0.576004 5.409498,-0.050995c2.369301,0.716995 2.066101,3.582001 -0.407099,3.373993z" stroke-width="1px" fill-rule="nonzero" fill="#3f3f3f" id="svg_8"/>
    <path d="m67.723297,284.79599c1.656601,-1.733002 3.397202,-3.41098 5.230705,-4.977997c5.0103,-3.947998 9.329597,-8.516998 13.807999,-13.009979c4.586998,-5.822021 10.452103,-10.617004 15.979996,-15.596008c6.919006,-5.787003 13.067001,-7.300003 21.941002,-5.449005c1.251999,-0.910004 2.502998,-1.820007 3.755005,-2.731003c0.541,-0.39299 1.115997,0.348007 0.574997,0.740997l0,0c-1.266998,0.919998 -2.535004,1.841003 -3.802002,2.762009c-2.127998,8.845993 -6.474998,13.233002 -15.25,16.411987c-6.964996,2.19101 -13.630501,5.009003 -20.518501,7.38501c-5.724701,2.764984 -11.346695,5.609009 -15.814598,10.143005c-1.548203,1.678009 -3.0672,3.313995 -3.812401,5.483002c-0.5383,1.566986 -3.250801,0.048981 -2.092201,-1.162018z" stroke-width="1px" fill-rule="nonzero" fill="#3f3f3f" id="svg_9"/>
    <path d="m158.468002,114.429001c-1.451004,-0.754997 -2.867996,-1.618004 -4.330002,-2.379997c-3.343994,-2.263 -7.011993,-4.032005 -10.703003,-5.693001c-3.653,-1.792 -7.496994,-3.200005 -10.987,-5.289001c-2.947998,-1.674103 -4.908997,-3.932198 -5.713997,-7.130501c0.544998,-4.838104 6.295006,-5.319298 10.297997,-6.029701c5.408005,-1.195198 10.930008,-1.094299 16.425003,-0.806198c3.830994,0.167397 7.337997,0.921799 10.212006,3.4608c2.853989,3.795395 -0.714005,6.167702 -4.348007,6.953201c-0.645004,0.248299 -1.289993,0.496696 -1.934006,0.744995c-0.628998,0.242004 -0.981995,-0.620399 -0.352997,-0.860794l0,0c0.613007,-0.234001 1.225998,-0.468102 1.839005,-0.702103c1.240997,-1.260002 2.324997,-2.331505 2.289001,-4.082298c-1.895996,-2.522003 -4.589005,-3.808601 -7.822998,-4.377007c-5.345001,-0.769295 -10.779007,-0.468697 -16.072006,0.566902c-2.979996,0.945702 -6.024002,1.821999 -7.451996,4.709503c0.455994,2.4133 1.757996,4.170799 3.875992,5.696396c3.318008,2.186806 6.831009,4.0578 10.49501,5.645805c3.640991,1.778999 7.307999,3.549995 11.141998,4.911995c1.636993,0.746002 3.429993,1.281006 4.830002,2.418999c1.550995,1.263 0.095993,3.170006 -1.690002,2.242004z" stroke-width="1px" fill-rule="nonzero" fill="#3f3f3f" id="svg_10"/>
   </g>
  </g>
  <g transform="rotate(78.0287 196.542 266.502)" id="layer1">
   <g id="g2422">
    <path d="m160.130997,340.480011c-3.399994,-1.710999 -6.835999,-3.206024 -9.987,-5.400024c-6.735001,-4.994995 -12.432999,-10.77298 -17.377991,-17.431976c-5.675003,-7.605011 -7.414009,-16.313995 -7.578003,-25.482025c0.955994,-9.595978 6.044998,-17.129974 12.802994,-23.863983c8.236008,-6.890015 17.92601,-11.695007 28.518005,-13.975998c11.725998,-2.149002 23.313004,-0.350006 34.632996,2.738998c10.460999,3.242004 19.121002,9.235992 25.796997,17.57901c6.182007,9.184998 4.527008,18.567993 0.613998,28.177002c-6.069,11.412994 -15.172989,20.895996 -23.547989,30.723999c-9.197998,9.925995 -16.403,21.18399 -22.378998,33.134979c-2.046005,7.52301 -6.548004,15.699005 -5.440002,23.359009c0.093994,0.648987 -0.855011,0.776001 -0.947998,0.127991l0,0c-1.353012,-9.509003 -4.105011,-16.526978 2.067993,-25.609985c6.554001,-11.942993 15.225006,-22.550018 23.076004,-33.700012c7.280991,-9.903992 14.860001,-19.759003 20.36499,-30.722992c3.215012,-7.321014 4.605011,-14.51001 0.859009,-21.979004c-4.972,-8.341003 -12.380005,-13.863007 -21.681,-17.315002c-10.552002,-3.518005 -21.522003,-4.903 -32.615997,-3.037994c-10.157013,2.191986 -19.869003,4.756989 -27.235001,12.411011c-5.957001,6.243988 -10.568008,13.336975 -11.234009,22.033997c-0.595001,8.513 1.746002,16.338989 6.624008,23.483978c4.792999,6.178009 10.501999,11.771027 17.028,16.243011c2.694992,1.94101 5.313995,4.774994 8.647995,5.468994c2.279007,0.473999 1.059006,4.078003 -1.009003,3.037018z" stroke-width="1px" fill-rule="nonzero" fill="#3f3f3f" id="path2318"/>
    <path d="m256.604004,164.695999c3.329987,-1.632996 6.921997,-2.393005 10.553986,-3.104996c7.558014,-1.171997 15.184021,-0.81601 22.693024,0.419998c7.340973,1.949997 12.702972,6.608002 17.651978,11.938995c4.358002,5.757004 5.621002,11.542999 2.886017,18.190002c-3.636993,7.134003 -10.992004,11.070007 -17.662018,15.197006c-8.230988,4.761993 -16.701996,9.104996 -25.10199,13.57399c-9.674011,4.633011 -18.337997,10.705002 -26.761993,17.16301c-9.657013,7.740997 -17.436005,17.21199 -24.046005,27.457001c-6.557999,9.631989 -9.850998,20.522003 -11.813995,31.769989c-1.865005,8.453003 -0.103012,16.471008 2.914001,24.407013c0.232986,0.613983 -0.666,0.93399 -0.899002,0.319l0,0c-3.056,-8.069 -4.548004,-16.408997 -4.279007,-25.041016c1.451004,-11.75 5.731003,-22.546997 12.292999,-32.55899c6.957001,-10.292007 14.253998,-20.459 23.878006,-28.626999c8.25,-6.957001 17.143982,-13.199005 26.572998,-18.584c8.188995,-4.536011 16.501984,-8.936005 24.187012,-14.251007c5.343994,-3.709991 10.628998,-7.632004 13.813995,-13.348999c1.514984,-4.26799 1.936981,-8.343002 -0.561005,-12.425003c-3.157013,-5.455002 -8.251007,-9.182999 -14.174011,-11.60199c-6.792999,-2.943008 -13.855988,-3.921005 -21.196991,-2.279999c-3.420013,0.801987 -6.85199,1.740997 -10.006989,3.281998c-1.372009,0.669998 -2.31102,-1.223007 -0.94101,-1.895004z" stroke-width="1px" fill-rule="nonzero" fill="#3f3f3f" id="path2324"/>
    <path d="m236.860992,265.335999c1.112015,-1.566986 3.207001,-2.217987 4.973007,-2.993011c4.936996,-2.23999 9.149002,-5.548981 13.085999,-9.143982c5.363998,-5.052002 9.276993,-11.105011 12.792007,-17.434006c2.941986,-6.255005 4.177002,-13.130005 3.962006,-19.972c-0.779999,-4.690994 -1.722015,-9.427002 -6.15802,-11.947998c-0.582977,-0.332001 -0.095978,-1.130997 0.486023,-0.798004l0,0c5.737,3.292999 11.144989,5.333008 10.575989,12.94101c-0.778992,7.386993 -3.966003,13.92099 -7.35199,20.513c-3.236023,6.679993 -7.419006,12.880997 -12.565002,18.345993c-3.808014,4.070999 -7.799011,7.968002 -12.133011,11.520004c-1.397995,1.169006 -3.029007,2.755005 -4.826004,2.928009c-3.50499,0.336975 -4.835999,-1.149017 -2.841003,-3.959015z" stroke-width="1px" fill-rule="nonzero" fill="#3f3f3f" id="path2326"/>
    <path d="m187.261993,348.539001c0.590012,-2.152008 2.71701,-3.695007 4.205002,-5.424011c3.716003,-4.776978 5.875,-10.182983 7.650009,-15.854004c1.285995,-6.595001 1.179993,-13.217987 -0.76001,-19.654999c-1.582001,-5.371979 -4.700989,-10.115997 -8.873993,-13.934998c-4.460999,-3.897003 -9.759995,-4.391998 -15.488007,-3.718994c-3.945999,0.584991 -7.233994,2.26001 -10.582993,4.234009c-0.578003,0.341003 -1.076004,-0.451019 -0.498001,-0.791016l0,0c3.442001,-2.023987 6.787003,-4.256989 10.550003,-5.703003c6.992996,-2.203979 13.824997,-2.688995 20.031998,1.84201c5.194992,4.692017 8.543991,10.328003 9.921997,17.143005c0.770996,7.195984 0.317993,14.289001 -2.362,21.127991c-1.679993,5.882019 -3.651993,11.832001 -6.675003,17.197021c-1.179993,2.120972 -2.278,4.747986 -4.630997,5.607971c-2.171005,0.79303 -3.082001,0.09903 -2.488007,-2.070984z" stroke-width="1px" fill-rule="nonzero" fill="#3f3f3f" id="path2372"/>
    <path d="m218.016998,309.553986c1.651001,-1.296997 2.652008,-3.113983 3.747009,-4.84198c2.832993,-4.593018 6.207993,-8.828003 9.682999,-12.975006c4.987,-6.019012 10.542999,-11.541992 16.265991,-16.89801c5.757996,-4.410004 10.214005,-9.717987 14.621017,-15.312988c4.033997,-6.054001 9.018982,-8.643005 16.17099,-6.190994c3.717987,1.830994 4.970001,5.249008 6.830994,8.587997c0.498993,0.389008 0.998993,0.777985 1.498993,1.166992c0.527008,0.410004 0.567017,0.567993 0,0.925995l0,0c-0.617981,0.389008 -1.235992,0.779022 -1.854004,1.167999c-3.708984,2.165009 -8.057983,2.011017 -11.927979,0.059021c-1.263,-2.779022 -4.479004,-1.929016 -7.364014,-1.393005c-6.919983,2.470001 -12.302994,6.384979 -17.310989,11.654999c-5.695999,5.32901 -11.225006,10.825989 -16.188004,16.815002c-3.449005,4.115997 -6.800003,8.316986 -9.611008,12.876007c-1.077988,1.701996 -2.358994,3.35498 -2.884995,5.306976c-0.347,1.287018 -2.744003,-0.110992 -1.677002,-0.949005z" stroke-width="1px" fill-rule="nonzero" fill="#3f3f3f" id="path2374"/>
    <path d="m165.472,258.144989c-1.591003,-0.134003 -3.195007,-0.321991 -4.802002,-0.431c-4.968994,0.046997 -9.809998,1.475006 -14.514999,2.900024c-9.373001,3.695984 -17.681992,9.317993 -25.752998,15.131989c-10.972,8.156006 -20.551903,17.856995 -27.830399,29.243011c-5.389503,8.078979 -0.3162,17.026978 -2.312401,25.214996c0.755196,1.078979 1.5103,2.15799 2.265495,3.235992c0.379402,0.541992 -0.415794,1.062012 -0.793098,0.518005l0,0c-0.783195,-1.128021 -1.566299,-2.256012 -2.349495,-3.384003c-9.4216,-6.987 -3.8451,-18.330994 2.195595,-26.20401c7.758804,-11.201996 17.086304,-21.217987 28.253304,-29.365997c8.140999,-5.863007 16.521996,-11.528992 25.978004,-15.252991c4.714996,-2.131012 9.528,-3.977005 14.659988,-4.929001c1.782013,-0.281006 3.67601,-0.577011 5.410004,-0.052002c2.369003,0.716995 2.06601,3.581985 -0.406998,3.374985z" stroke-width="1px" fill-rule="nonzero" fill="#3f3f3f" id="path2380"/>
    <path d="m207.957993,340.272003c1.657013,-1.733002 3.397003,-3.411011 5.231003,-4.977997c5.01001,-3.947998 9.330002,-8.515991 13.807999,-13.009003c4.587006,-5.822998 10.452011,-10.617004 15.980011,-15.596008c6.918991,-5.786987 13.067001,-7.300995 21.940994,-5.449005c1.252014,-0.91098 2.502991,-1.820984 3.755005,-2.730988c0.540985,-0.394012 1.115997,0.346985 0.574982,0.73999l0,0c-1.266998,0.921021 -2.534973,1.84201 -3.801971,2.761993c-2.128021,8.846008 -6.475006,13.234009 -15.250015,16.413025c-6.964996,2.190002 -13.630005,5.007996 -20.518997,7.384979c-5.723999,2.764008 -11.346008,5.608002 -15.813995,10.143005c-1.548004,1.677002 -3.067001,3.313995 -3.812012,5.481995c-0.539001,1.567017 -3.250992,0.050018 -2.093002,-1.161987z" stroke-width="1px" fill-rule="nonzero" fill="#3f3f3f" id="path2394"/>
    <path d="m298.703003,169.904999c-1.450989,-0.753998 -2.868011,-1.617004 -4.330017,-2.380005c-3.343994,-2.263 -7.011993,-4.030991 -10.702972,-5.692993c-3.653015,-1.792007 -7.497009,-3.199997 -10.987,-5.289001c-2.948029,-1.673996 -4.909027,-3.932007 -5.713013,-7.130005c0.544006,-4.837997 6.294006,-5.319992 10.296997,-6.029999c5.40799,-1.194992 10.929993,-1.093994 16.424988,-0.806c3.831024,0.167007 7.338013,0.921997 10.212006,3.460999c2.854004,3.794998 -0.713989,6.167007 -4.347992,6.953003c-0.644989,0.248001 -1.289001,0.497009 -1.93399,0.744995c-0.628998,0.242004 -0.981995,-0.620987 -0.352997,-0.860992l0,0c0.612976,-0.233994 1.225983,-0.468002 1.838989,-0.701996c1.240997,-1.26001 2.325012,-2.332001 2.289001,-4.082001c-1.895996,-2.522003 -4.588989,-3.809006 -7.822998,-4.376999c-5.345001,-0.770004 -10.778992,-0.469009 -16.071991,0.567001c-2.980011,0.944992 -6.024017,1.821991 -7.452026,4.709c0.456024,2.412994 1.758026,4.17099 3.876007,5.695999c3.317993,2.186996 6.830994,4.05899 10.494995,5.646988c3.641022,1.779007 7.308014,3.549011 11.141998,4.911011c1.637024,0.746994 3.430023,1.280991 4.830017,2.419998c1.550995,1.261993 0.096008,3.168991 -1.690002,2.240997z" stroke-width="1px" fill-rule="nonzero" fill="#3f3f3f" id="path2400"/>
   </g>
  </g>
 </g>
</svg>